<svg height="420pt" viewBox="-17 0 420 420.14184" width="420pt" xmlns="http://www.w3.org/2000/svg"><path d="m295.773438 223.796875 54.597656 104.222656c16.785156-25.917969 27.355468-58.464843 29.527344-91.59375.445312-6.824219-4.957032-12.628906-11.796876-12.628906zm0 0" fill="#ffdd95"/><path d="m350.367188 334.847656c-.101563 0-.207032 0-.3125-.007812-2.425782-.113282-4.605469-1.5-5.734376-3.652344l-54.59375-104.226562c-1.109374-2.113282-1.03125-4.660157.207032-6.699219 1.234375-2.046875 3.449218-3.296875 5.839844-3.296875h72.328124c5.128907 0 10.082032 2.148437 13.59375 5.902344 3.519532 3.757812 5.351563 8.867187 5.015626 14.007812-2.234376 34.136719-13.105469 67.824219-30.613282 94.859375-1.261718 1.949219-3.421875 3.113281-5.730468 3.113281zm-43.3125-104.226562 43.699218 83.425781c12.671875-23.140625 20.519532-50.417969 22.328125-78.066406.09375-1.40625-.390625-2.75-1.355469-3.777344-.953124-1.023437-2.238281-1.582031-3.625-1.582031zm0 0"/><path d="m234.601562 223.796875c34.820313-21.101563 74.273438-53.207031 74.273438-96.082031v-120.886719s-32.96875 21.980469-43.960938 49.453125c-22.277343-25.753906-129.011718-25.574219-153.859374 0-10.988282-27.476562-43.957032-49.453125-43.957032-49.453125v82.292969c-56.058594 51.53125-80.605468 136.796875-41.046875 223.722656 16.363281 35.953125 45.441407 64.988281 81.410157 81.3125 98.851562 44.863281 195.621093 6.878906 242.90625-66.136719l-54.328126-104.222656zm0 0" fill="#fcad3a"/><path d="m193.757812 420.140625c-29.410156 0-59.707031-6.425781-89.117187-19.773437-37.589844-17.058594-67.707031-47.136719-84.800781-84.699219-37.058594-81.425781-21.144532-171.167969 40.433594-229.511719v-79.328125c0-2.519531 1.386718-4.832031 3.605468-6.019531 2.207032-1.191406 4.902344-1.058594 7.003906.339844 1.285157.855468 28.816407 19.40625 42.65625 44.507812 19.679688-12.398438 55.554688-16.105469 82.902344-15.339844 11.527344.332032 46.683594 2.40625 66.125 15.09375 13.886719-24.972656 41.242188-43.40625 42.519532-44.261718 2.097656-1.398438 4.789062-1.53125 7.007812-.339844 2.21875 1.1875 3.605469 3.503906 3.605469 6.019531v120.886719c0 31.574218-19.585938 61.527344-58.292969 89.253906h38.632812c2.542969 0 4.875 1.414062 6.054688 3.675781l54.328125 104.222657c1.136719 2.179687 1.011719 4.800781-.324219 6.867187-37.042968 57.195313-97.535156 88.40625-162.339844 88.40625zm-119.832031-399.503906v68.484375c0 1.914062-.800781 3.734375-2.207031 5.027344-58.976562 54.207031-74.460938 138.9375-39.449219 215.867187 15.722657 34.550781 43.429688 62.226563 78.011719 77.925781 100.789062 45.710938 190.21875 1.246094 232.171875-60.339844l-50.550781-96.980468h-57.300782c-3.0625 0-5.746093-2.039063-6.570312-4.988282-.828125-2.949218.414062-6.089843 3.035156-7.679687 47.101563-28.539063 70.984375-58.898437 70.984375-90.238281v-107.066406c-10.054687 8.40625-24.519531 22.472656-30.796875 38.167968-.886718 2.210938-2.859375 3.804688-5.207031 4.199219-2.355469.375-4.734375-.464844-6.296875-2.265625-8.050781-9.316406-33.058594-15.902344-63.703125-16.789062-36.332031-1.132813-69.296875 5.96875-80.09375 17.082031-1.613281 1.652343-3.945313 2.390625-6.21875 1.941406-2.269531-.457031-4.160156-2.023437-5.015625-4.167969-6.296875-15.742187-20.746094-29.792968-30.792969-38.179687zm0 0"/><path d="m226.453125 173.007812c-3.769531 0-6.828125-3.054687-6.828125-6.828124 0-12.851563 10.457031-23.3125 23.308594-23.3125 3.773437 0 6.828125 3.054687 6.828125 6.828124 0 3.773438-3.054688 6.828126-6.828125 6.828126-5.320313 0-9.65625 4.332031-9.65625 9.65625 0 3.773437-3.054688 6.828124-6.824219 6.828124zm0 0"/><path d="m155.015625 173.007812c-3.769531 0-6.824219-3.054687-6.824219-6.828124 0-5.324219-4.335937-9.65625-9.65625-9.65625-3.773437 0-6.828125-3.054688-6.828125-6.828126 0-3.773437 3.054688-6.828124 6.828125-6.828124 12.851563 0 23.308594 10.460937 23.308594 23.3125 0 3.773437-3.058594 6.828124-6.828125 6.828124zm0 0"/><path d="m101.5 178.503906h22.960938c8.625 0 16.507812 4.871094 20.363281 12.585938l41.992187 66.839844-88.65625-70.949219c-3.25-3.03125-1.105468-8.476563 3.339844-8.476563zm0 0" fill="#ffdd95"/><path d="m186.816406 264.753906c-1.507812 0-3.019531-.492187-4.269531-1.492187l-88.65625-70.945313c-3.9375-3.65625-5.074219-8.707031-3.300781-13.214844 1.78125-4.511718 6.0625-7.425781 10.910156-7.425781h22.960938c11.28125 0 21.425781 6.265625 26.472656 16.359375l41.660156 66.257813c1.773438 2.820312 1.25 6.515625-1.234375 8.726562-1.289063 1.15625-2.917969 1.734375-4.542969 1.734375zm-79.828125-79.425781 52.582031 42.0625-20.523437-32.667969c-3.042969-6.011718-8.503906-9.394531-14.582031-9.394531zm0 0"/><path d="m279.96875 178.503906h-22.960938c-8.625 0-16.507812 4.871094-20.363281 12.585938l-36.175781 66.839844 82.84375-70.949219c3.246094-3.03125 1.101562-8.476563-3.34375-8.476563zm0 0" fill="#ffdd95"/><path d="m200.46875 264.753906c-1.519531 0-3.035156-.503906-4.289062-1.511718-2.5625-2.066407-3.28125-5.667969-1.714844-8.5625l36.175781-66.839844c4.941406-9.898438 15.085937-16.167969 26.367187-16.167969h22.957032c4.847656 0 9.128906 2.914063 10.910156 7.421875 1.777344 4.515625.640625 9.566406-2.902344 12.875l-83.066406 71.144531c-1.273438 1.09375-2.855469 1.640625-4.4375 1.640625zm56.539062-79.425781c-6.078124 0-11.539062 3.378906-14.257812 8.8125l-18.75 34.648437 50.746094-43.460937zm22.960938 0h.066406zm0 0"/><path d="m170.339844 230.621094h46.285156c3.628906 0 5.441406 4.59375 2.878906 7.28125l-23.144531 24.253906c-1.589844 1.664062-4.167969 1.664062-5.757813 0l-23.144531-24.253906c-2.5625-2.6875-.746093-7.28125 2.882813-7.28125zm0 0" fill="#ee5281"/><path d="m193.484375 270.234375c-.003906 0-.003906 0-.007813 0-2.929687-.007813-5.777343-1.234375-7.8125-3.375l-23.144531-24.242187c-3.09375-3.242188-3.945312-8.019532-2.167969-12.167969 1.730469-4.039063 5.652344-6.652344 9.988282-6.652344h46.289062c4.339844 0 8.257813 2.613281 9.988282 6.660156 1.773437 4.144531.921874 8.917969-2.175782 12.160157l-23.140625 24.253906c-2.042969 2.136718-4.894531 3.363281-7.816406 3.363281zm-17.023437-32.785156 17.023437 17.832031 17.015625-17.832031zm40.164062 0h.066406zm0 0"/><path d="m107.5 353.667969c-1.355469 0-2.722656-.398438-3.914062-1.238281-41.925782-29.40625-66.957032-77.496094-66.957032-128.632813 0-3.773437 3.058594-6.828125 6.828125-6.828125s6.828125 3.054688 6.828125 6.828125c0 46.691406 22.855469 90.597656 61.140625 117.457031 3.089844 2.160156 3.832031 6.421875 1.671875 9.507813-1.332031 1.894531-3.449218 2.90625-5.597656 2.90625zm0 0"/><path d="m193.640625 380.808594c-15.449219 0-30.707031-2.238282-45.34375-6.652344-3.609375-1.085938-5.652344-4.894531-4.570313-8.507812 1.09375-3.597657 4.90625-5.644532 8.507813-4.558594 13.359375 4.027344 27.289063 6.066406 41.40625 6.066406 3.769531 0 6.828125 3.054688 6.828125 6.828125s-3.058594 6.824219-6.828125 6.824219zm0 0"/></svg>